<svg width="48" height="48" viewBox="0 0 48 48" fill="none" xmlns="http://www.w3.org/2000/svg">
<rect width="48" height="48" rx="5" fill="#DBDFE5"/>
<path d="M28.0003 18.667C28.7367 18.667 29.3337 19.2639 29.3337 20.0003V28.0003C29.3337 28.7367 28.7367 29.3337 28.0003 29.3337H20.0003C19.2639 29.3337 18.667 28.7367 18.667 28.0003V20.0003C18.667 19.2639 19.2639 18.667 20.0003 18.667H28.0003ZM25.3337 24.9437L23.8051 26.4718C23.7009 26.5759 23.5658 26.6421 23.4213 26.6612L23.3337 26.667L20.0003 26.6663V28.0003H28.0003V26.6663L27.3337 26.667C27.1863 26.667 27.044 26.6182 26.9283 26.5296L26.8623 26.4718L25.3337 24.9437ZM28.0003 25.333V20.0003H20.0003V25.333L23.0563 25.3337L24.8623 23.5289C25.1026 23.2886 25.4807 23.2701 25.7422 23.4735L25.8051 23.5289L27.6103 25.3337L28.0003 25.333ZM22.0003 20.667C22.7367 20.667 23.3337 21.2639 23.3337 22.0003C23.3337 22.7367 22.7367 23.3337 22.0003 23.3337C21.2639 23.3337 20.667 22.7367 20.667 22.0003C20.667 21.2639 21.2639 20.667 22.0003 20.667Z" fill="#8290A4"/>
</svg>
